<?xml version="1.0" encoding="utf-8"?>
<!-- Generator: Adobe Illustrator 24.0.0, SVG Export Plug-In . SVG Version: 6.00 Build 0)  -->
<svg version="1.1" id="Layer_1" xmlns="http://www.w3.org/2000/svg" xmlns:xlink="http://www.w3.org/1999/xlink" x="0px" y="0px"
	 viewBox="0 0 1355.8 388.4" style="enable-background:new 0 0 1355.8 388.4;" xml:space="preserve">
<style type="text/css">
	.st0{fill:#D2342E;}
	.st1{fill:#F69679;}
	.st2{fill:#F26649;}
	.st3{fill:#B72C26;}
	.st4{fill:#00597D;}
</style>
<title>logosb</title>
<path class="st0" d="M1205.8,133c34.5-25.9,55-12.2,70.8,0.8c44.1,36.6,64.9,19.3,75,4.3c14-20.8-11.6-37-11.6-37
	c19.8-51.3-52.6-54.5-52.6-54.5c-56.4-2.9-101.2,39.2-101.2,39.2c0.1-13.1,26-33.4,26-33.4c36.8-30.2,20-45.2,7.6-50
	c-37-14.4-56.7,41.4-56.7,41.4c-6.3,13.8-7.6,30.4-6.4,46.9C1189.6,100.6,1199.8,118.2,1205.8,133"/>
<path class="st1" d="M1137.5,281c-3-8.3-9.1-19.4-14.7-31.4l0,0c-8.3-17.3-5.4-37.2-4.4-48.4c0-0.1,0-0.2,0.1-0.3
	c0.3-2,0.3-3.9,0-5.9v-0.1l0,0c-0.5-3.2-1.8-6.8-5.5-8.7l-1-0.5c-1.1-0.6-2.4-1-3.6-1.1c-9.5-1.1-13.7,12.5-16.3,18
	c-13.2,28.1-61.2,44.4-61.2,44.4c-14.1,5.8-31.7,19.3-23.4,56c0,0,1.1,22.9,29,38.3c15.2,9.7,33.9,12.1,51,6.6
	c4.9-1.6,10.8-5.4,14.3-15.3c0,0,55.4,2.1,35.6-51.5"/>
<path class="st2" d="M1347,256.9L1347,256.9c0.4-10.8-11.4-15.1-18.6-18.1c-17.7-7.4-17.3-29.9-22.4-40.8
	c-26-56.4-85.1-41.5-98.1-37.5c-2.8,13.9-9,25.4-0.7,33.4c3.5,4.6,7.1,9.2,10.6,13.8c3.7,3.9,5.3,8.2,0.4,11
	c-4.8,2.9-11.4,4-4.7,12.2c2.7,3,5.5,5.5,3,7.7c-2.5,1.9-5,3.7-7.5,5.6c3.5,2.8,6.4,5.8,3.5,9.9c-3.5,4.6-8.9,7.6-5.2,17.6
	c2.6,10.9-6.3,15.4-18.7,13.2c-14-3.6-27.7-6.8-34.8-1.2c14.1,13.8,17.5,26.9,13.7,39.5h0.1c56.6,54.8,93.3,9.9,93.3,9.9
	c66,17.3,56.2-39.5,56.2-39.5S1346.9,285.4,1347,256.9"/>
<path class="st3" d="M1050,50.9c16.4,6,20.5,0.1,25.7-6.4c6.7-8.4,8.9-29.8,33.4-23.8c21.8,5.4,29,47.9,26.7,82.1l0,0l-0.1,1.1
	c-0.3,3.4-0.6,6.7-1,9.9c-2.2,17.5-9,51.2-22.1,51.2c-6.5,0-10.7-12-12.7-16.9c-23-55.2-50.9-56.1-73.9-64.7
	c-20-7.4-6.1-27.4-7.3-25.7C1018.7,57.7,1026.4,42.2,1050,50.9"/>
<path class="st4" d="M251.5,288.8c2,6.8,0.8,10.9-3.5,12.2c-4.4,1.3-8.3,1.9-11.3,0.7c-3.7-1.5-7-4.5-10.4-8h-0.7
	c-7.6,4.1-17.5,6.6-29.6,7.5c-21.6,0-36.2-6.5-43.9-19.5c-4.3-8.1-6.4-14.6-6.4-19.6c0-19,8.2-31.2,24.6-36.6
	c6.5-2.5,12.1-3.7,16.8-3.7h3.2c13.7,0,24.3,2,31.9,6h0.5c0.8-6.6,1.2-13.2,1.2-19.9c0-7.5-0.7-11.2-2-11.2c-2-0.9-4.4-0.4-7.3,0.1
	c-0.4,0-0.9,0-1.3,0c-3.2,0-12.9,2.5-29.2,7.6l-2.4,0.3c-8.8,0-15.8-3-21.1-9.1c-3.9-5.5-6.3-11.9-6.9-18.6c0-3.6,1.6-5.5,4.7-5.5
	c5.3,0.9,14.3,2.7,26.8,5.5c13.7,2.5,22.7,4.2,27.1,5.1c10.2,0.6,17.9,2.9,23.1,6.9c10.5,7.6,15.7,19.6,15.8,35.8v12.5
	C249.3,264.8,249.5,282,251.5,288.8 M169,265.5c1,7.7,6.2,12.1,15.6,13c2.6,0.7,5.3,1,8,0.9h2.1c11.6,0,19.5-3.9,23.6-11.7
	c0.9-2.1,1.3-4.3,1.2-6.5c0-9.6-5.8-15.9-17.4-18.8c-3.2-0.7-6.5-1-9.7-0.9c-13.7,1.5-20.2,7.3-23.5,16.3
	C168.4,259.4,168.1,261.9,169,265.5"/>
<path class="st4" d="M283.6,167.3c6.3,0,15.3,5.4,27.1,16.3c3,1.4,6.3,2.1,9.6,2.1h11.5c24.1,0,40.6,10.3,49.5,30.8
	c2.6,7.5,3.9,23.9,3.9,49.4c0,18.1-4.3,29.8-12.8,35c-1.6,0.9-3.4,1.3-5.2,1.3h-0.8c-7.1,0-11.5-5.6-13.2-16.8v-5.1l0.3-3.5
	l-0.3-0.1l0.3-3.6v-2.9l0.3-13.1c-1.8-28.1-1.8-44.8-3.6-49.2c-1.6-4.2-5.6-7.1-10.1-7.2h-2.8c-11.5,1.3-18.6,2-21.5,2l-5.9-0.4
	c-1.2,9.7-1.8,19.5-1.8,29.3v2.9l0.3,3.3l-0.3,0.4l0.3,3.6c0,11,1,25.6,3.1,43.8c0,8.2-2.8,13.2-8.4,15.2c-1.4,0.6-3,0.9-4.5,0.9
	H296c-7.6,0-12.8-3.8-15.5-11.3c-0.8-2.8-1.2-5.7-1.2-8.7l1.2-12.5l-0.3-0.4v-0.3c1.6-10.6,2.4-23.8,2.4-39.6v-1.6
	c0-19.5-1.8-34.3-5.3-44.4l-0.7-6.3c0.5-6,2.7-8.9,6.5-8.9L283.6,167.3z"/>
<path class="st4" d="M451.8,153c6,0,17.3,0.5,28.4,9.9c1.4,1.1,2.2,2.8,2.3,4.5v0.3l-2.3,10c6.7,2,13.1,5.1,18.7,9.3
	c15.3,11.1,22.9,25.6,22.9,43.5v2.1c0,20.1-8.1,33.4-24.3,39.8c-6.6,2.7-13.7,4.2-20.8,4.3l-2.5,6.3c0,0.4,1.6,1,4.9,1.7
	c6.6,1.5,12.9,3.8,18.9,6.8c19.1,11.7,28.7,25.9,28.7,42.4c-0.9,26.6-11.6,41.9-32.3,45.9c-7.3,2-14.8,3-22.3,3.1v0.4l-0.3-0.4h-0.3
	l-1.6,0.4c-27.1,0-46.9-9.2-59.4-27.5c-4-8.4-6-18.1-6-29.1c0-10.9,6.9-21.6,20.7-32.3c7.9-5.4,16.9-8.9,26.4-10.1
	c2.5-6.9,2.9-10.4,1.1-10.4c-14-3.6-24.7-9.8-32.2-18.7c-7-9.3-10.5-19.3-10.5-30c0-15.7,6.6-28.7,19.8-38.8
	c9.3-5.8,18.2-8.7,26.7-8.7c0.2-5-2.2-9.6-7.2-13.7c-2.1-1.6-3.4-4.1-3.5-6.8C446,154.4,448,153,451.8,153 M430.1,326.3v2
	c0,15.6,7,25.7,21,30.1c3.8,0.8,7.7,1.2,11.6,1.2c18.3,0,30.3-5.7,35.8-17.1c2-6.2,2.4-10.6,1.5-13.2v-2.7c0-8.2-7-15.3-21-21.4
	c-4.3-1.4-8.8-2.1-13.3-2c-16.9,0-28.4,5.2-34.4,15.7C430.5,321.4,430.1,323.9,430.1,326.3 M432.9,224.6c0,11.4,6.5,19.1,19.5,23
	c4.4,0.9,8.9,1.3,13.3,1.2h1.6c15.2,0,25.3-4.6,30.1-13.8c1-2.6,1.5-5.3,1.6-8c0-10.9-6.9-18.9-20.5-23.9c-3.6-1.2-7.4-1.7-11.2-1.6
	h-4.3c-13.7,0-23.4,5.6-29.1,16.7C433.4,220.4,433,222.5,432.9,224.6"/>
<path class="st4" d="M552.1,167.3c6.3,0,15.3,5.4,27.1,16.3c3,1.4,6.3,2.1,9.6,2.1h11.5c24.1,0,40.6,10.3,49.5,30.8
	c2.6,7.5,3.9,23.9,3.9,49.4c0,18.1-4.3,29.8-12.8,35c-1.6,0.9-3.4,1.3-5.2,1.3h-0.8c-7.1,0-11.5-5.6-13.2-16.8v-5.1l0.3-3.5
	l-0.3-0.1l0.3-3.6v-2.9l0.3-13.1c-1.8-28.1-1.8-44.8-3.6-49.2c-1.6-4.3-5.6-7.1-10.2-7.2h-2.8c-11.5,1.3-18.6,2-21.5,2l-5.9-0.4
	c-1.2,9.7-1.8,19.5-1.7,29.3v2.9l0.3,3.3l-0.3,0.4l0.3,3.6c0,11,1,25.6,3.1,43.8c0,8.2-2.8,13.2-8.4,15.2c-1.4,0.6-3,0.9-4.5,0.9
	h-2.4c-7.6,0-12.8-3.8-15.5-11.3c-0.8-2.8-1.2-5.7-1.2-8.7l1.2-12.5l-0.3-0.4v-0.3c1.6-10.6,2.4-23.8,2.4-39.6v-1.6
	c0-19.5-1.8-34.3-5.3-44.4l-0.7-6.3c0.5-6,2.7-8.9,6.5-8.9L552.1,167.3z"/>
<path class="st4" d="M779.6,289.9c2,6.8,0.8,10.9-3.5,12.2c-4.4,1.3-8.3,1.9-11.3,0.7c-3.7-1.5-7-4.5-10.4-8h-0.6
	c-7.6,4.1-17.5,6.6-29.6,7.5c-21.6,0-36.2-6.5-43.9-19.5c-4.3-8.1-6.4-14.6-6.4-19.6c0-19,8.2-31.2,24.5-36.6
	c6.5-2.5,12.1-3.7,16.8-3.7h3.2c13.7,0,24.3,2,31.9,6h0.5c0.8-6.6,1.2-13.2,1.2-19.9c0-7.5-0.7-11.2-2-11.2c-2-0.9-4.4-0.4-7.3,0.1
	c-0.4,0-0.9,0-1.3,0c-3.2,0-13,2.5-29.2,7.6l-2.4,0.3c-8.8,0-15.8-3-21.1-9.1c-3.9-5.5-6.2-11.9-6.9-18.6c0-3.6,1.6-5.5,4.7-5.5
	c5.3,0.9,14.3,2.7,26.8,5.5c13.7,2.5,22.7,4.5,27.1,5.1c10.2,1.3,17.9,2.9,23.1,6.9c10.5,7.7,15.7,19.6,15.7,35.8v12.5
	C777.5,265.9,777.7,283.1,779.6,289.9 M697.2,266.6c1,7.7,6.2,12.1,15.6,13c2.6,0.7,5.3,1,8,0.9h2.1c11.7,0,19.5-3.9,23.6-11.7
	c0.9-2.1,1.3-4.3,1.2-6.5c0-9.6-5.8-15.9-17.3-18.8c-3.2-0.7-6.5-1-9.7-0.9c-13.7,1.5-21.5,6.9-23.5,16.3
	C696.3,260.4,696.3,263,697.2,266.6"/>
<path class="st4" d="M952.2,224.1c-2.5-22.1-13.3-31.7-45-32.4c-10-0.3-20,1.1-29.6,4.2c-8.2-3.6-20.3-5.7-36.3-6.2
	c-3.1-1.8-6.3-3.4-9.6-4.8c-11.7-9.1-20.3-13.6-25.8-13.6l-0.4,0.4c-3.8,0-6,3-6.5,8.9l0.7,6.3c3.6,8.4,5.3,23.2,5.3,44.4v1.6
	c0,15.8-0.8,29-2.4,39.6v0.3l0.3,0.4l-1.2,12.5c0,2.9,0.4,5.8,1.2,8.7c2.7,7.6,7.4,11.3,14.1,11.3h2.4c1.6,0,3.1-0.4,4.5-0.9
	c5.6-2,8.4-7,8.4-15.2c-2-18.1-3.1-32.7-3.1-43.8l-0.3-3.6l0.3-0.4l-0.3-3.3v-2.9c-0.9-14.2,1.7-23,7.6-26.3
	c6.4-2.7,12.5-2.9,18.4-0.7c4.3,2,6.4,10.1,6.3,24.1l-0.3,37.4v2.9l-0.3,3.6l0.3,0.1l-0.3,3.5v5.1c3.5,11.2,7.9,16.8,13.2,16.8h0.8
	c1.5,0,3.1-0.4,4.5-1c5-0.6,9.1-6.1,12.4-16.8v-3.7c0.8-4.9,1.3-9.8,1.2-14.8c-0.3-17.1-0.8-30.6-1.4-40.6
	c0.2-7.2,0.6-11.5,1.1-12.8h0.9c0.3,0.1,0.7,0.1,1,0c5.6-0.3,11.3-0.3,16.9,0c7.5,0.6,11.3,3.7,11.5,9.5c0.2,5.7,0.3,19.1,0.3,40.1
	l-0.4,12.9v2.9c0,0-0.6,2.8-0.3,3.6c0,0.1,0.2,0.2,0.3,0.3c0.3,0.8-0.2,2.5-0.3,3.3c-0.1,1.7-0.1,3.5,0,5.2
	c1.8,11.5,8,16.7,13.2,16.7h0.9c1.8,0,3.6-0.4,5.2-1.2c8.5-5.2,13.7-16.1,15.5-32.4C956.5,248.9,953.2,232.8,952.2,224.1"/>
<path class="st4" d="M116.5,288.2c1.4,1.9,8.5,11.7,25.5,28c5.7,4.7,8.6,8.1,8.6,10.4c0,3.6-3.9,5.6-11.8,6.3c-6.8,0-20.2-3-40-8.9
	c-4.1-2.8-7.2-8.1-9.3-16c-6.2-16.4-16.9-33.9-31.9-52.4c-2.5-2.6-4.2-3.8-4.9-3.8c-3.3,3.3-4.9,5.9-4.9,7.8
	c0,16.8-3.4,40.6-14.4,70.8c-3.8,12.2-8.9,19-11.1,20.9c0,0-6.6,1-6-17.1v-74.8l0,0c-0.4-12.4-0.6-27-0.6-44.1l-0.4-8.6l0.4-0.3
	l-0.5-4.5v-18l-0.3-4.1l0.3-0.5L15,174v-14.2l-0.4-7l0.4-0.3l-0.4-5.6v-11.6c1-11.5-3.9-23.8-14.6-36.8v-1.1
	c1.6-4.3,5.8-6.4,12.7-6.4c13,0,24,7,33,20.9c2.8,3,4.1,5.6,4.1,7.8v0.8L48.6,136v102.5h0.8c17.8-19.1,29-32.5,33.4-40.3
	c10.1-17.3,16.7-27.6,19.9-30.9c2.3-2.2,5.4-3.3,8.6-3.4c7.6,0,13.6,6.1,17.9,18.2l0.5,5.6v0.8c0,12.8-9.5,23.1-28.4,30.9
	c-8.4,4.1-14.8,8.2-19.3,12.4v0.3L116.5,288.2z"/>
<path class="st2" d="M159.5,49.1c0-2.5,1.9-4.5,4.4-4.6c0,0,0,0,0,0h18.7c5.9,0,10.5,1.6,13.5,4.6c2.3,2.2,3.5,5.3,3.5,8.5v0.1
	c0,6.2-3.5,9.5-7.4,11.5c6,2.1,10.2,5.5,10.2,12.5v0.2c0,9.2-7.6,14.1-19.1,14.1h-19.3c-2.5,0-4.5-1.9-4.6-4.4c0,0,0,0,0,0
	L159.5,49.1L159.5,49.1z M180.8,66.2c5.8,0,9.7-2.3,9.7-7v-0.1c0-4-3.2-6.5-9-6.5h-13v13.7H180.8z M183.4,88c6.2,0,9.9-2.4,9.9-7.1
	v-0.2c0-4.3-3.5-6.9-10.6-6.9h-14.3V88H183.4z"/>
<path class="st2" d="M212.6,91.4V49.1c0-2.5,1.9-4.5,4.4-4.6c0,0,0,0,0,0h30.1c2.2,0,4,1.8,4,4c0,2.2-1.8,4-3.9,4h-25.5V66h22.1
	c2.2,0.1,4,1.9,4,4.1c0,2.2-1.8,4-4,4h-22.1v13.8h25.8c2.2,0,4,1.8,4,4c0,2.2-1.8,4-4,4h-30.3C214.7,95.9,212.7,93.9,212.6,91.4
	C212.6,91.5,212.6,91.5,212.6,91.4v-0.1 M227.9,38.5c-1.5,1.4-3.4,2.1-5.4,2c-1.1,0-2-0.5-2-1.5c0.1-0.7,0.4-1.3,0.9-1.8l4.9-6.1
	c1-1.4,2.6-2.2,4.3-2.1h2.6c1.7-0.1,3.3,0.7,4.3,2.1l4.9,6.1c0.4,0.5,0.8,1.1,0.9,1.8c0,1-1,1.5-2.1,1.5c-2,0.1-4-0.6-5.4-2
	l-3.8-3.3L227.9,38.5z"/>
<path class="st2" d="M261.9,48.8c0-2.5,2-4.5,4.5-4.6c0,0,0,0,0,0h1.1c2.2,0,3.5,1.1,4.7,2.7L298,80.2V48.5c0-2.5,2-4.4,4.5-4.4
	c2.5,0,4.4,2,4.4,4.4v43.3c0.1,2.4-1.9,4.4-4.3,4.5c0,0,0,0,0,0h-0.5c-2.1,0-3.5-1.1-4.7-2.7l-26.6-34.3V92
	c-0.1,2.5-2.2,4.4-4.7,4.2c-2.3-0.1-4.1-1.9-4.2-4.2L261.9,48.8L261.9,48.8z"/>
<path class="st2" d="M320,48.6c0.3-2.5,2.5-4.3,5-4c2.1,0.2,3.7,1.9,4,4v17.3h24.7V48.6c0.3-2.5,2.5-4.3,5-4c2.1,0.2,3.7,1.9,4,4
	v43.3c-0.3,2.5-2.5,4.3-5,4c-2.1-0.2-3.7-1.9-4-4V74.3h-24.6v17.6c-0.3,2.5-2.5,4.3-5,4c-2.1-0.2-3.7-1.9-4-4L320,48.6z"/>
<path class="st2" d="M413,93.1l-18-42.4c-0.3-0.7-0.5-1.4-0.5-2.1c0-2.5,2-4.4,4.5-4.4c0,0,0,0,0,0l0,0c2.1-0.1,4,1.3,4.6,3.2
	l14.9,37.2l15.1-37.5c0.7-1.8,2.4-3,4.3-3c2.4-0.1,4.4,1.8,4.5,4.3c0,0,0,0,0,0v0.1c0,0.7-0.2,1.3-0.4,1.9L423.9,93
	c-0.7,2.2-2.9,3.7-5.2,3.7h-0.5C415.8,96.7,413.7,95.2,413,93.1"/>
<path class="st2" d="M452.5,48.6c0.3-2.5,2.5-4.3,5-4c2.1,0.2,3.7,1.9,4,4v43.3c-0.3,2.5-2.5,4.3-5,4c-2.1-0.2-3.7-1.9-4-4V48.6z"/>
<path class="st2" d="M475.3,91.4V49.1c0-2.5,1.9-4.5,4.4-4.6c0,0,0,0,0,0h30.1c2.2,0,4,1.8,4,4.1c0,2.2-1.8,4-4,4h-25.5V66h22.1
	c2.2,0.1,4,1.9,4,4.1c0,2.2-1.8,4-4,4h-22.1v13.8h25.8c2.2,0,4,1.8,4.1,4c0,2.2-1.8,4-4,4h-30.4C477.3,95.9,475.3,93.9,475.3,91.4
	C475.3,91.5,475.3,91.4,475.3,91.4v-0.1 M490.6,38.5c-1.5,1.4-3.4,2.1-5.4,2c-1.1,0-2-0.5-2-1.5c0.1-0.7,0.4-1.3,0.9-1.8l4.9-6.1
	c1-1.4,2.6-2.2,4.3-2.1h2.6c1.7-0.1,3.3,0.7,4.3,2.1l4.9,6.1c0.4,0.5,0.8,1.1,0.9,1.8c0,1-1,1.5-2.1,1.5c-2,0.1-4-0.6-5.4-2
	l-3.8-3.3L490.6,38.5z"/>
<path class="st2" d="M524.5,48.8c0-2.5,2-4.5,4.5-4.6c0,0,0,0,0,0h1c2.2,0,3.5,1.1,4.7,2.7l25.8,33.3V48.5c0-2.5,2-4.5,4.5-4.5
	s4.5,2,4.5,4.5v43.3c0.1,2.4-1.9,4.4-4.3,4.5c0,0,0,0,0,0h-0.5c-2.1,0-3.5-1.1-4.7-2.7l-26.5-34.3V92c0,2.5-2,4.5-4.5,4.5
	s-4.5-2-4.5-4.5l0,0l0,0L524.5,48.8L524.5,48.8z"/>
<path class="st2" d="M617.4,52.9h-12.5c-2.3-0.1-4.1-2.1-4-4.4c0.1-2.2,1.8-3.9,4-4h34.2c2.3,0.1,4.1,2.1,4,4.4
	c-0.1,2.2-1.8,3.9-4,4h-12.6v39c0,2.5-2,4.6-4.6,4.6c-2.5,0-4.6-2-4.6-4.6c0,0,0,0,0,0L617.4,52.9z"/>
<path class="st2" d="M652.4,48.6c0.3-2.5,2.5-4.3,5-4c2.1,0.2,3.7,1.9,4,4v17.3H686V48.6c0.3-2.5,2.5-4.3,5-4c2.1,0.2,3.7,1.9,4,4
	v43.3c-0.3,2.5-2.5,4.3-5,4c-2.1-0.2-3.7-1.9-4-4V74.3h-24.5v17.6c-0.3,2.5-2.5,4.3-5,4c-2.1-0.2-3.7-1.9-4-4L652.4,48.6z"/>
<path class="st2" d="M705.4,90.1l19.1-42.7c0.9-2.3,3.1-3.7,5.5-3.7h0.4c2.4,0,4.5,1.4,5.4,3.7l19.1,42.7c0.3,0.6,0.5,1.2,0.5,1.9
	c0.1,2.3-1.8,4.3-4.1,4.3c0,0,0,0,0,0h-0.1c-2,0-3.8-1.3-4.4-3.2l-4.2-9.6h-25l-4.3,9.9c-0.6,1.8-2.4,2.9-4.2,2.9
	c-2.3,0-4.2-1.8-4.2-4.1c0,0,0,0,0,0v-0.1C704.8,91.4,705,90.8,705.4,90.1 M726.1,37.9c-1.5,1.4-3.4,2.1-5.5,2c-1.1,0-2-0.5-2-1.5
	c0.1-0.7,0.4-1.3,0.9-1.8l4.9-6.1c1-1.4,2.6-2.2,4.3-2.1h2.7c1.7-0.1,3.3,0.7,4.3,2.1l4.8,6.1c0.4,0.5,0.8,1.1,0.9,1.8
	c0,1-1,1.5-2.1,1.5c-2,0.1-4-0.6-5.4-2l-3.8-3.3L726.1,37.9z M739.1,75.6l-9-20.8l-9,20.8H739.1z"/>
<path class="st2" d="M765.2,48.8c0-2.5,2-4.5,4.5-4.6c0,0,0,0,0,0h1c1.8,0,3.4,0.9,4.3,2.4l15.6,24.4l15.7-24.5
	c0.8-1.5,2.4-2.4,4.1-2.4h1c2.5,0,4.5,2,4.6,4.5c0,0,0,0,0,0v43.2c0,2.5-2,4.5-4.5,4.5h-0.1c-2.5,0-4.4-2-4.5-4.5V61l-12.7,18.9
	c-1,2.1-3.6,3-5.6,1.9c-0.8-0.4-1.5-1.1-1.9-1.9l-12.5-18.8V92c0,2.4-1.9,4.4-4.4,4.4h0h-0.1c-2.4,0-4.4-1.9-4.4-4.3c0,0,0,0,0,0
	L765.2,48.8L765.2,48.8z"/>
<path class="st2" d="M851.1,48.8c0-2.5,2-4.5,4.5-4.6c0,0,0,0,0,0h1.1c1.7,0,3.3,0.9,4.2,2.4l15.6,24.4l15.7-24.5
	c0.8-1.5,2.4-2.4,4.1-2.4h1c2.5,0,4.5,2,4.6,4.5c0,0,0,0,0,0v43.2c0,2.5-2,4.5-4.5,4.5h-0.1c-2.5,0-4.5-2-4.5-4.5V61l-12.6,18.9
	c-1,2.1-3.6,3-5.6,1.9c-0.8-0.4-1.5-1.1-1.9-1.9L860,61.1V92c0,2.4-1.9,4.4-4.4,4.4h0h-0.1c-2.4,0.1-4.4-1.8-4.4-4.2c0,0,0,0,0,0
	L851.1,48.8L851.1,48.8z"/>
<path class="st2" d="M929.5,76l-17.8-24.4c-0.6-0.9-1-2-1-3.2c0-2.4,2-4.4,4.5-4.3c0,0,0,0,0,0h0.1c2,0,3.3,1.1,4.4,2.7L934,67.5
	l14.6-20.7c1.1-1.6,2.4-2.7,4.3-2.7c2.4-0.1,4.4,1.8,4.4,4.2c0,0,0,0,0,0v0.2c-0.1,1.2-0.5,2.3-1.3,3.2l-17.6,24.1v16.1
	c-0.3,2.5-2.5,4.3-5,4c-2.1-0.2-3.7-1.9-4-4L929.5,76L929.5,76z"/>
<path class="st2" d="M745.9,18.6c-3.1-0.1-6,1.1-8.2,3.3c-1.1,1-1.3,2.7-0.3,3.8c1,1.1,2.7,1.3,3.8,0.3l0,0c1.2-1.2,2.9-1.9,4.6-1.9
	c2.2,0,3.6,1.1,3.6,2.9s-1.6,3-4.8,3.3c-1.2,0.1-2.1,1.2-2,2.4v0.2l0.4,3.2c0.1,1.2,1.1,2.1,2.2,2.1h0.2c1.2,0,2.1-0.9,2.3-2.1
	l0.1-1.2c4.9-1,7.5-3.7,7.5-8.1C755.3,22,751.6,18.7,745.9,18.6"/>
<path class="st2" d="M923.3,38.6c-1.4,0-2.6-1.1-2.7-2.5c0-0.6,0.1-1.1,0.3-1.6c1.5-4.3,3.5-6.7,7.5-6.7s8,2.9,10.5,2.9
	c1.8,0,2.6-0.7,3.5-2.3c0.6-1.3,2.2-1.9,3.5-1.3c0.9,0.4,1.5,1.3,1.5,2.3c0,0.6-0.1,1.2-0.3,1.7c-1.5,4.3-3.5,6.7-7.5,6.7
	s-8-3-10.5-3c-1.8,0-2.6,0.7-3.5,2.4C925.2,38,924.3,38.6,923.3,38.6"/>
<path class="st2" d="M232.1,101c2.5-0.1,4.6,1.9,4.7,4.4c0,0,0,0,0,0v0.8c-0.1,2.6-2.3,4.6-4.9,4.5c-2.4-0.1-4.4-2.1-4.5-4.5v-0.7
	c0-2.5,2-4.6,4.5-4.6c0,0,0,0,0,0H232.1"/>
<path class="st2" d="M494.8,101c2.5-0.1,4.6,1.9,4.7,4.4c0,0,0,0,0,0v0.8c-0.1,2.6-2.3,4.6-4.9,4.5c-2.4-0.1-4.4-2.1-4.5-4.5v-0.7
	c0-2.5,2-4.6,4.5-4.6c0,0,0,0,0,0H494.8"/>
</svg>
